<svg xmlns="http://www.w3.org/2000/svg" width="46" height="46" fill="none"><path fill="#000" d="M44.23 20.78 25.22 1.77A3.19 3.19 0 0 0 23 .83c-.82 0-1.63.35-2.22.94L16.7 5.85l4.78 4.78c.47-.23.94-.35 1.52-.35 1.98 0 3.5 1.52 3.5 3.5 0 .59-.12 1.05-.35 1.52l4.67 4.67c.46-.24.93-.35 1.51-.35 1.99 0 3.5 1.51 3.5 3.5 0 1.98-1.51 3.5-3.5 3.5a3.44 3.44 0 0 1-3.5-3.5c0-.59.12-1.05.35-1.52l-4.66-4.67c-.12 0-.24.12-.35.12v12.13a3.4 3.4 0 0 1 2.33 3.27c0 1.98-1.52 3.5-3.5 3.5a3.44 3.44 0 0 1-3.5-3.5c0-1.52.93-2.8 2.33-3.27V16.93a3.4 3.4 0 0 1-2.33-3.26c0-.59.12-1.05.35-1.52l-4.78-4.78-13.3 13.41c-.59.59-.94 1.4-.94 2.22 0 .82.35 1.63.94 2.22l19.01 19.01c.59.59 1.4.94 2.22.94.82 0 1.63-.35 2.22-.94l19.01-19.01c.59-.59.94-1.4.94-2.22 0-.82-.35-1.63-.94-2.22Z"/></svg>