<!-- this comment is needed so that Vue does not inlining svg in the production build                                                                                                                                                                                                                                                                                                                                                                                                                                                                                                                                                                                                                                                                                                                                                                                                                                                                                                                                                                                                                                                                                                                                                                                                                                                                                                                                                                                                                                                                                                                                                                                                                                                                                                                                                                                                                                                                                                                                                                                                                                                                                                                                                                                                                                                                                                                                                                                                                                                                                                                                                                                                                                                                                                                                                                                                                                                                                                                                                                                                                                                                                                                                                                                                                                                                                                                                                                                                                                                                                                                                                                                                                                                                                                                                                                     -->
<svg xmlns="http://www.w3.org/2000/svg">
  <svg id="github"
    viewBox="0 0 32 32" fill="none">
    <path fill="currentColor" d="M16 0c8.84 0 16 7.16 16 16a16.0263 16.0263 0 0 1-10.9 15.18c-.8.16-1.1-.34-1.1-.76 0-.54.02-2.26.02-4.4 0-1.5-.5-2.46-1.08-2.96 3.56-.4 7.3-1.76 7.3-7.9 0-1.76-.62-3.18-1.64-4.3.16-.4.72-2.04-.16-4.24 0 0-1.34-.44-4.4 1.64-1.28-.36-2.64-.54-4-.54-1.36 0-2.72.18-4 .54-3.06-2.06-4.4-1.64-4.4-1.64-.88 2.2-.32 3.84-.16 4.24-1.02 1.12-1.64 2.56-1.64 4.3 0 6.12 3.72 7.5 7.28 7.9-.46.4-.88 1.1-1.02 2.14-.92.42-3.22 1.1-4.66-1.32-.3-.48-1.2-1.66-2.46-1.64-1.34.02-.54.76.02 1.06.68.38 1.46 1.8 1.64 2.26.32.9 1.36 2.62 5.38 1.88 0 1.34.02 2.6.02 2.98 0 .42-.3.9-1.1.76A15.9901 15.9901 0 0 1 0 16C0 7.16 7.16 0 16 0Z"/>
  </svg>
  
  <svg id="call"
    viewBox="0 0 24 24" fill="none">
    <path fill="#1aa16d" d="m15.6 14.5-.5.5s-1 1.2-4-2c-3-3-2-4.2-2-4.2l.4-.3c.7-.7.8-2 .1-2.8L8.4 3.9C7.6 3 6 2.7 5.3 3.6L3.7 5.3c-.4.4-.7 1-.7 1.7 0 1.6.8 5.3 4.8 9.5 4.3 4.4 8.2 4.6 9.9 4.5.5 0 1-.4 1.3-.7l1.4-1.5c1-1 .7-2.8-.5-3.5l-2-1a2 2 0 0 0-2.3.2Z"/>
  </svg>

  <svg id="telegram"
    viewBox="0 0 500 500" fill="none">
    <path fill="#34aadf" d="M250 500a250 250 0 1 0 0-500 250 250 0 0 0 0 500z"/>
    <path fill="#fff" d="m104 248 168-70 73-30s26-10 24 15l-12 83-18 114s-2 16-14 19-32-10-36-13c-3-2-54-34-73-50-5-5-11-13 1-23l76-73c8-8 17-29-19-4l-102 69s-12 7-33 0l-47-15s-18-11 12-22z"/>
  </svg>
  
  <svg id="discord"
    viewBox="0 0 32 25" fill="none">
    <path fill="currentColor" d="M27.11 2.13C25 1.13 22.86.38 20.5 0l-.88 1.75a23.5 23.5 0 0 0-7.25 0L11.5 0C9.1.38 6.99 1.13 4.86 2.13a28.1 28.1 0 0 0-4.75 18.5 23.8 23.8 0 0 0 8.13 4.12l1.75-2.88-2.75-1.25.62-.62c5.25 2.5 11 2.5 16.25 0l.63.63-2.75 1.25 1.75 2.87c2.62-.75 5.37-2 8.12-4.13.63-7-1.12-13.12-4.75-18.5Zm-16.5 14.75c-1.5 0-2.87-1.5-2.87-3.25 0-1.76 1.37-3.26 2.87-3.26 1.63 0 3 1.5 2.88 3.26.12 1.74-1.25 3.24-2.88 3.24Zm10.75 0c-1.62 0-2.87-1.5-2.87-3.25 0-1.76 1.25-3.26 2.87-3.26 1.5 0 2.88 1.5 2.88 3.26 0 1.74-1.38 3.24-2.88 3.24Z"/>
  </svg>

  <svg id="mail"
    viewBox="0 0 20 16" fill="none">
    <path fill="currentColor" d="M2 16a2 2 0 0 1-1.4-.6A2 2 0 0 1 0 14V2C0 1.4.2 1 .6.6A2 2 0 0 1 2 0h16c.6 0 1 .2 1.4.6.4.4.6.8.6 1.4v12c0 .6-.2 1-.6 1.4a2 2 0 0 1-1.4.6H2Zm8-7 8-5V2l-8 5-8-5v2l8 5Z"/>
  </svg>
</svg>
